<?xml version="1.0" ?><!DOCTYPE svg  PUBLIC '-//W3C//DTD SVG 1.1//EN'  'http://www.w3.org/Graphics/SVG/1.1/DTD/svg11.dtd'><svg enable-background="new 0 0 100 100" height="100px" version="1.1" viewBox="0 0 100 100" width="100px" xml:space="preserve" xmlns="http://www.w3.org/2000/svg" xmlns:xlink="http://www.w3.org/1999/xlink"><g id="color_x5F_fill"><path d="M58.648,56.411c-0.453,2.83-2.102,5.48-3.367,8.01c-1.238,2.48-3.018,4.671-5.48,6.028   c-2.01,1.105-4.018,2.348-6.24,2.973c-2.314,0.651-4.795,0.529-7.178,0.604c-2.535,0.08-5.021-0.197-7.428-1.03   c-4.293-1.485-9.168-4.247-11.973-7.907c-2.551-3.327-4.861-8.668-4.861-12.908v-1.75c0.115-4.097,1.459-8.954,3.598-12.781   c1.244-2.227,2.18-4.335,4.377-5.881c1.057-0.745,2.172-1.542,3.213-2.213c0.98-0.634,1.65-1.046,2.805-1.528   c8.168-3.4,18.74-2.847,25.48,3.43c0.197,0.185,0.432,0.491,0.652,0.723l-1.375,1.25c-1.416,1.827-3.568,3.698-4.75,5.375   l-1.188-1.062c-1.312-1.625-4.695-2.484-5.875-2.735c-2.939-0.626-6.604,0.031-9.357,1.395c-4.92,2.436-8.332,7.776-8.578,13.149   c-0.182,4.012,1.781,8.605,4.492,11.653c1.82,2.048,5.854,4.145,8.615,4.283c1.887,0.094,3.896-0.132,5.764-0.392   c4.619-0.644,9.32-5.462,10.184-10.042l-2.244-0.062c-1.562-0.125-4.074,0.001-6.053-0.062c-1.51-0.049-4.631,0.19-5.51-0.125   c0,0,0.148-6.337,0.049-8.212c0,0,6.41,0.12,9.338,0.212c2.111,0.067,4.213,0.365,6.328,0.29c2.352-0.083,4.744,0.085,7.051-0.331   C58.992,49.973,59.158,53.223,58.648,56.411z M87.879,53.245c-0.043-2.356,0.021-4.017-0.072-6.322   c-2.014-0.057-6.689-0.053-6.689-0.053c-0.055-2.26,0.102-4.73-0.016-7.144c-1.996,0.391-4.561,0.179-6.588,0.223   c-0.062,2.034-0.143,4.424-0.143,6.233l-0.17,0.614c-1.973,0.06-4.996,0.27-6.936,0.031c0.121,2.005,0,4.73,0.105,6.605   c0,0,5.08-0.193,6.855-0.105c0.178,2.321,0.145,4.733,0.145,7.105l1.125-0.125c1.641,0.269,3.736-0.228,5.48,0.105   c0.08-1.92,0.082-5.23,0.188-7.23C81.164,53.182,86.033,53.102,87.879,53.245z" fill="#D36259"/></g><g id="offset_x5F_print_x5F_outline"/></svg>